PathFileType	4	(X/Y/Z)	C:/Users/opensim2020/Desktop/walking_exp_matlab/subject03_walking10_straight_04.trc	
DataRate	CameraRate	NumFrames	NumMarkers	Units	OrigDataRate	OrigDataStartFrame	OrigNumFrames	
100.00	100.00	4	45	mm	100.00	4101	317	
Frame#	Time	LFHD			RFHD			LBHD			RBHD			C7			T10			CLAV			STRN			RBAK			LSHO			LUPA			LELB			LFRM			LWRA			LWRB			LFIN			RSHO			RUPA			RELB			RFRM			RWRA			RWRB			RFIN			LASI			RASI			LPSI			RPSI			LTHI			LKNE			LTIB			LANK			LHEE			LTOE			RTHI			RKNE			RTIB			RANK			RHEE			RTOE			*39			*40			*41			*42			*43			*44			
		X1	Y1	Z1	X2	Y2	Z2	X3	Y3	Z3	X4	Y4	Z4	X5	Y5	Z5	X6	Y6	Z6	X7	Y7	Z7	X8	Y8	Z8	X9	Y9	Z9	X10	Y10	Z10	X11	Y11	Z11	X12	Y12	Z12	X13	Y13	Z13	X14	Y14	Z14	X15	Y15	Z15	X16	Y16	Z16	X17	Y17	Z17	X18	Y18	Z18	X19	Y19	Z19	X20	Y20	Z20	X21	Y21	Z21	X22	Y22	Z22	X23	Y23	Z23	X24	Y24	Z24	X25	Y25	Z25	X26	Y26	Z26	X27	Y27	Z27	X28	Y28	Z28	X29	Y29	Z29	X30	Y30	Z30	X31	Y31	Z31	X32	Y32	Z32	X33	Y33	Z33	X34	Y34	Z34	X35	Y35	Z35	X36	Y36	Z36	X37	Y37	Z37	X38	Y38	Z38	X39	Y39	Z39	X40	Y40	Z40	X41	Y41	Z41	X42	Y42	Z42	X43	Y43	Z43	X44	Y44	Z44	X45	Y45	Z45	

278	2.770	-940.41217	-947.96216	1602.30688	-1073.38245	-946.15430	1605.36499	-944.63458	-821.90143	1551.55969	-1074.97656	-826.04382	1555.02539	-1003.28772	-797.53394	1395.07971	-1003.55658	-769.61786	1081.25671	-998.60046	-920.53143	1320.27173	-993.75977	-964.38055	1155.41016	-1103.24609	-750.72894	1220.38513	-843.60370	-868.46753	1354.67395	-779.77368	-845.01831	1154.12708	-773.86133	-842.90051	1030.04468	-780.16284	-863.45868	901.11938	-815.72925	-880.55597	785.11456	-766.34106	-853.99792	787.48792	-780.98248	-866.00403	704.14685	-1160.91309	-883.17712	1343.22205	-1235.05566	-915.48425	1124.58374	-1247.91357	-954.47162	1019.21942	-1243.06921	-1009.43311	894.04352	-1201.71667	-1065.28076	814.94202	-1245.88989	-1038.67688	798.06329	-1231.57410	-1082.82178	739.44330	-892.76636	-934.79651	912.12225	-1131.11389	-930.96649	921.05872	-937.40448	-772.87134	939.20227	-1086.33704	-772.96796	957.48724	-847.00787	-935.72552	614.04681	-890.92664	-1010.74542	455.41736	-886.90570	-1030.02783	267.88504	-916.82916	-1100.29956	67.31922	-960.01099	-1078.26868	23.96194	-917.38806	-1253.35010	69.85421	-1166.37561	-828.40875	633.80627	-1130.52051	-800.92206	455.72989	-1128.34705	-704.87866	286.32300	-1072.60278	-620.80206	86.19061	-1020.85614	-570.56317	65.68806	-1054.03711	-754.21796	29.12070	-991.49615	-862.99457	1658.04285															 
279	2.780	-939.11713	-955.25787	1601.35291	-1072.15027	-952.90344	1604.99268	-943.36841	-828.98022	1550.35583	-1073.77014	-832.97009	1554.05200	-1001.76917	-805.33765	1394.12854	-1002.07129	-778.00433	1080.26074	-997.75360	-928.61627	1319.50391	-993.20435	-972.69867	1154.67346	-1101.47314	-758.12964	1219.32849	-842.55420	-877.26654	1353.92920	-778.84656	-854.48029	1153.16235	-773.13068	-852.24762	1028.84155	-779.94464	-873.27930	900.14380	-815.98718	-890.05267	784.15997	-766.33716	-863.96313	786.43542	-781.34436	-875.81622	703.07880	-1159.95422	-890.27014	1342.27527	-1233.60400	-922.00964	1123.30908	-1246.38135	-960.69336	1017.78229	-1241.63184	-1015.03607	892.29633	-1200.41736	-1070.58032	813.02356	-1244.53479	-1043.76685	796.14966	-1230.34790	-1087.62390	737.36780	-892.21027	-943.61774	911.21960	-1130.53064	-938.41821	919.97565	-936.13922	-781.29901	938.50189	-1084.96985	-780.70441	956.58899	-846.06189	-946.18146	614.47198	-890.00537	-1019.84076	455.09006	-886.70178	-1036.40222	266.36285	-917.73822	-1103.27856	64.96632	-960.22461	-1079.99976	23.11396	-918.22418	-1255.99841	65.30468	-1165.81299	-834.03064	633.24286	-1130.33960	-805.74811	455.22711	-1128.09082	-707.88953	286.75153	-1072.61182	-621.37097	87.66372	-1020.76422	-571.16504	67.50518	-1054.10950	-754.34381	29.06468	-990.16968	-869.48004	1657.08472															 
280	2.790	-937.85126	-961.93500	1600.95032	-1070.87646	-959.58417	1604.66772	-942.11652	-836.07434	1549.18408	-1072.46863	-839.93774	1553.19360	-1000.18329	-813.20496	1393.17261	-1000.68567	-786.48175	1079.33838	-996.92126	-936.69708	1318.86011	-992.64319	-981.15326	1154.04578	-1099.53955	-765.75067	1218.33289	-841.41565	-886.21356	1353.13721	-777.67920	-864.18781	1152.38086	-772.37866	-862.11456	1027.92639	-779.64771	-883.20776	899.28088	-816.32758	-899.79736	783.23059	-766.23578	-874.14813	785.52435	-781.59296	-885.95496	702.16803	-1159.00134	-897.44946	1341.45605	-1232.08728	-928.62085	1122.13574	-1244.73792	-966.96472	1016.40948	-1240.20898	-1020.51520	890.60229	-1199.31238	-1075.92615	811.04224	-1243.31604	-1048.61401	794.29858	-1229.34778	-1092.17786	735.20166	-891.65417	-952.76801	910.60938	-1130.01672	-946.02631	918.93231	-934.71619	-790.06201	937.95752	-1083.59351	-788.58508	955.77545	-845.37836	-956.78577	614.95386	-889.10394	-1028.68481	454.71985	-886.77405	-1042.15295	264.72400	-918.52448	-1106.37317	63.20263	-960.98792	-1080.90210	23.09410	-918.88940	-1258.57800	58.74327	-1165.15234	-839.88416	632.73846	-1130.05029	-810.85797	454.76379	-1127.79102	-711.05029	287.30637	-1072.49353	-622.33185	89.09899	-1020.66125	-571.85419	69.56969	-1054.18494	-754.49750	29.03248	-988.41998	-876.11487	1656.17529															 
281	2.800	-936.40485	-968.94891	1600.80371	-1069.56079	-966.37689	1604.59839	-940.74646	-843.26794	1548.11230	-1071.13538	-846.97174	1552.36377	-998.68958	-820.97638	1392.52441	-998.93317	-795.48694	1078.41394	-995.99829	-944.87921	1318.39099	-992.12823	-989.75586	1153.71228	-1097.62207	-773.34338	1217.59949	-840.15576	-895.28925	1352.58264	-776.57135	-873.97980	1151.60913	-771.49365	-872.13428	1027.20398	-779.23285	-893.34418	898.48541	-816.04443	-910.28583	782.84204	-766.00183	-884.59192	784.75525	-781.61835	-896.41394	701.46942	-1157.76733	-904.72443	1340.70264	-1230.53442	-935.28577	1121.11780	-1243.17981	-973.25482	1015.18707	-1238.83862	-1025.92310	888.95123	-1198.04126	-1080.77454	808.74103	-1241.92065	-1053.13245	792.30090	-1228.41711	-1096.44739	733.02820	-891.20599	-962.03717	910.38428	-1129.56262	-953.89874	917.95593	-933.05432	-799.01459	937.67645	-1082.14771	-796.50397	955.03119	-845.07489	-967.14276	615.44940	-888.61578	-1036.78467	454.24252	-887.63782	-1048.09302	263.74768	-918.62744	-1110.48950	62.80076	-961.50732	-1083.23938	24.94828	-918.83984	-1261.88684	50.17749	-1164.41394	-845.96454	632.30157	-1129.49500	-816.13898	454.43488	-1127.39502	-714.35693	288.06625	-1072.55188	-623.25385	90.84756	-1020.68872	-572.67053	71.92353	-1054.22693	-754.66565	29.01159	-986.99152	-882.56018	1655.44507															 
